<svg height="200" viewBox="0 0 555.625 52.917" width="2100" xmlns="http://www.w3.org/2000/svg" xmlns:xlink="http://www.w3.org/1999/xlink"><linearGradient id="a" gradientUnits="userSpaceOnUse" x1="247.666" x2="247.666" y1="-4.879" y2="61.375"><stop offset="0" stop-color="#ededed"/><stop offset="1" stop-color="#c5c5c5"/></linearGradient><radialGradient id="b" cx="16.857" cy="17.624" gradientTransform="matrix(1.016 0 0 .541 275.28 17.829)" gradientUnits="userSpaceOnUse" r="16.495"><stop offset="0" stop-color="#00728e"/><stop offset="1" stop-color="#00bbeb" stop-opacity="0"/></radialGradient><path d="m-4.308-3.769h539.835v63.272h-539.835z" fill="url(#a)" stroke-linecap="round" stroke-linejoin="round" stroke-width="2.278" transform="matrix(1.049 0 0 1 -.992 0)"/><g transform="matrix(.291 0 0 .291 439.77 20.233)"><rect height="68.297" rx="1.835" width="102.852" x="-36.17" y="9.478"/><path d="m70.899 136.5-39.973 23.079v-46.157z" fill="#fff" transform="matrix(.854 0 0 .854 -25.096 -71.942)"/><g transform="matrix(.966 -.259 .259 .966 -121.959 21.032)"><rect height="22.402" rx="1.847" width="102.851" x="85.861" y="-11.38"/><g fill="#fff"><path d="m97.291-11.38h11.427v22.402h-11.427z"/><path d="m120.146-11.38h11.427v22.402h-11.427z"/><path d="m143.001-11.38h11.427v22.402h-11.427z"/><path d="m165.855-11.38h11.427v22.402h-11.427z"/></g></g></g><circle cx="533.858" cy="26.506" fill="#bb0f0f" r="16.74"/><g fill="#fff" stroke-linecap="round" stroke-linejoin="round" stroke-width="4" transform="matrix(.488 0 0 .488 641.484 -19.113)"><path d="m-231.431 107.466h5.472l-8.365-27.009h-6.371l-8.404 27.009h5.355l1.681-6.254h8.951zm-9.615-10.162 3.44-12.899 3.479 12.899zm33.106 4.69v-8.677c0-4.573-2.423-7.114-7.974-7.114-2.306 0-4.925.508-7.466 1.485l1.134 3.401c2.111-.704 4.104-1.094 5.511-1.094 2.658 0 3.87.899 3.87 3.596v1.173h-2.619c-6.019 0-9.381 2.423-9.381 6.918 0 3.752 2.541 6.371 6.645 6.371 2.502 0 4.729-.899 6.215-3.088.782 2.033 2.267 2.814 4.573 3.01l1.055-3.322c-1.016-.391-1.563-.977-1.563-2.658zm-8.912 2.423c-1.915 0-2.931-1.134-2.931-3.127 0-2.423 1.603-3.596 4.847-3.596h2.072v4.182c-.938 1.642-2.267 2.541-3.987 2.541z"/><path d="m-196.207 105.443h3.264v2.023h-10.001v-2.023h3.264v-24.429h-3.264v-2.042h10.001v2.042h-3.264z"/></g><circle cx="320.485" cy="-242.015" fill="#bb0f0f" r="4.958" transform="matrix(.858 .514 -.514 .858 90.466 79.696)"/><g transform="translate(476.726 10.076)"><path d="m17.035 27.197 1.441.063" stroke-linecap="round" stroke-linejoin="round"/><path d="m17.084 26.092a1.106 1.106 0 0 0 -1.154 1.057 1.106 1.106 0 0 0 1.057 1.154l1.441.063a1.106 1.106 0 0 0 1.154-1.057 1.106 1.106 0 0 0 -1.057-1.154z" stroke-linecap="round" stroke-linejoin="round"/><path d="m18.525 26.155 2.21.097a1.228 1.228 0 0 0 -.097 2.21l-2.21-.097-.062-1.11z"/></g><circle cx="330.151" cy="-246.877" fill="#c4c4c4" r="3.913" transform="matrix(.858 .514 -.514 .858 90.466 79.696)"/><circle cx="311.796" cy="-249.107" fill="#c4c4c4" r="3.913" transform="matrix(.858 .514 -.514 .858 90.466 79.696)"/><g transform="translate(476.726 10.076)"><g stroke-linecap="round" stroke-linejoin="round"><path d="m11.366 22.317-.859-2.315"/><path d="m10.17 19.096a.966.966 0 0 0 -.568 1.242l.859 2.316a.966.966 0 0 0 1.242.568.966.966 0 0 0 .568-1.242l-.859-2.314a.966.966 0 0 0 -1.242-.57z" fill="#d67070"/></g><g><path d="m12.913 22.436-.17-18.43" stroke-linecap="round" stroke-linejoin="round"/><path d="m12.734 2.951a1.055 1.055 0 0 0 -1.046 1.065l.17 18.43a1.055 1.055 0 0 0 1.064 1.047 1.055 1.055 0 0 0 1.047-1.066l-.17-18.431a1.055 1.055 0 0 0 -1.065-1.045z" stroke-linecap="round" stroke-linejoin="round"/><g fill-rule="evenodd"><path d="m12.725 2.017 2.68 4.539-5.276.048z"/><path d="m12.719 1.314-3.196 5.647 6.495-.059zm.012 1.404 2.061 3.49-4.055.037z"/></g></g><g><path d="m26.82 27.511 3.08.095" stroke-linecap="round" stroke-linejoin="round"/><path d="m26.854 26.4a1.111 1.111 0 0 0 -1.145 1.076 1.111 1.111 0 0 0 1.076 1.145l3.08.096a1.111 1.111 0 0 0 1.145-1.076 1.111 1.111 0 0 0 -1.076-1.145z" stroke-linecap="round" stroke-linejoin="round"/><g fill-rule="evenodd"><path d="m33.104 27.704-4.889 2.629.171-5.554z"/><path d="m28.035 24.127-.211 6.836 6.02-3.236zm.701 1.307 3.627 2.248-3.76 2.023z"/></g></g><g><path d="m9.185 28.121-5.337 1.817" stroke-linecap="round" stroke-linejoin="round"/><path d="m8.826 27.068-5.336 1.816a1.111 1.111 0 0 0 -.695 1.41 1.111 1.111 0 0 0 1.41.695l5.338-1.818a1.111 1.111 0 0 0 .693-1.41 1.111 1.111 0 0 0 -1.41-.693z" stroke-linecap="round" stroke-linejoin="round"/><g fill-rule="evenodd"><path d="m.813 30.971 3.654-4.179 1.791 5.26z"/><path d="m4.611 26.064-4.5 5.145 6.705 1.332zm-.287 1.453 1.377 4.047-4.188-.832z"/></g></g></g><g fill="#008eb1" stroke-linecap="round" transform="translate(105.544 141.084)"><path d="m271.868-115.158a1.088 1.088 0 0 0 -1.088 1.088v15.918a1.088 1.088 0 0 0 1.088 1.09 1.088 1.088 0 0 0 1.088-1.09v-15.918a1.088 1.088 0 0 0 -1.088-1.088z" stroke-linejoin="round"/><path d="m303.271-115.158a1.088 1.088 0 0 0 -1.09 1.088v15.918a1.088 1.088 0 0 0 1.09 1.09 1.088 1.088 0 0 0 1.088-1.09v-15.918a1.088 1.088 0 0 0 -1.088-1.088z" stroke-linejoin="round"/><g transform="translate(270.636 -130.742)"><g><path d="m3.971 23.543a1.088 1.088 0 0 0 -1.088 1.088 1.088 1.088 0 0 0 1.088 1.088h25.925a1.088 1.088 0 0 0 1.088-1.088 1.088 1.088 0 0 0 -1.088-1.088z" stroke-linejoin="round"/><path d="m8.143 18.793-5.838 5.838 5.838 5.838a.87.87 0 0 0 1.23 0 .87.87 0 0 0 0-1.23l-4.607-4.608 4.607-4.608a.87.87 0 0 0 0-1.23.87.87 0 0 0 -1.23 0z"/><path d="m25.109 18.539a.87.87 0 0 0 -.615.254.87.87 0 0 0 0 1.23l4.607 4.607-4.607 4.607a.87.87 0 0 0 0 1.23.87.87 0 0 0 1.23 0l5.838-5.838-5.838-5.838a.87.87 0 0 0 -.615-.254z"/></g><g stroke-linejoin="round"><path d="m11.109 18.482 4.814-13.26h1.958l4.877 13.26h-1.78l-1.326-3.702h-5.464l-1.282 3.702zm3.595-5.18h4.423l-.961-2.687q-.24-.668-.543-1.629-.303-.97-.73-2.412-.418 1.469-.729 2.448-.312.979-.526 1.593zm2.225-8.535q-.65 0-1.184-.303-.525-.301-.845-.809-.312-.507-.312-1.121 0-.623.311-1.121.32-.507.845-.801.534-.303 1.184-.303.65 0 1.175.303.534.294.845.801.32.498.32 1.121 0 .614-.32 1.121-.311.507-.845.81-.525.303-1.175.303zm0-1.121q.463 0 .783-.32.329-.329.329-.792 0-.463-.32-.783-.32-.329-.792-.329-.463 0-.792.329-.32.32-.32.783 0 .463.32.792.329.32.792.32z"/><path d="m16.93.166c-.455 0-.876.108-1.254.322-.37.207-.671.49-.896.848a.142.142 0 0 0 0 .002c-.222.355-.334.756-.334 1.195 0 .433.113.837.334 1.197.226.357.526.645.895.857a.142.142 0 0 0 .002.002c.378.214.799.32 1.254.32s.872-.108 1.244-.322v.002c.375-.213.676-.501.896-.859.227-.36.342-.763.342-1.197 0-.44-.116-.842-.344-1.197-.22-.357-.521-.641-.895-.848-.372-.214-.789-.322-1.244-.322zm0 .285c.411 0 .775.094 1.104.283a.142.142 0 0 0 .002.002c.336.185.598.432.793.75a.142.142 0 0 0 .002.004c.199.31.297.652.297 1.043 0 .385-.099.731-.299 1.047-.196.318-.459.571-.796.762-.328.189-.692.283-1.103.283s-.779-.094-1.114-.283c-.33-.191-.593-.443-.795-.762-.194-.316-.291-.661-.291-1.047 0-.392.097-.735.291-1.045.201-.318.463-.567.793-.752a.142.142 0 0 0 .002 0c.334-.19.702-.285 1.113-.285zm0 .828c-.342 0-.651.128-.895.371-.238.238-.361.541-.361.883 0 .341.124.649.361.893a.142.142 0 0 0 .002.002c.243.237.551.361.893.361.341 0 .645-.125.883-.363.243-.243.371-.55.371-.893 0-.341-.124-.643-.361-.881-.239-.244-.546-.373-.893-.373zm0 .285c.281 0 .5.091.689.285a.142.142 0 0 0 .002.002c.189.189.277.406.277.682 0 .275-.091.495-.287.691-.189.189-.406.279-.682.279-.275 0-.496-.088-.691-.277l-.002-.002c-.189-.195-.277-.416-.277-.691 0-.276.09-.492.279-.682.196-.196.417-.287.691-.287zm-1.006 3.516a.142.142 0 0 0 -.135.094l-4.814 13.26a.142.142 0 0 0 .134.191h1.797a.142.142 0 0 0 .135-.096l1.248-3.607h5.264l1.291 3.607a.142.142 0 0 0 .135.096h1.779a.142.142 0 0 0 .135-.191l-4.877-13.262a.142.142 0 0 0 -.135-.092zm.1.283h1.758l4.773 12.977h-1.477l-1.291-3.608a.142.142 0 0 0 -.135-.096h-5.464a.142.142 0 0 0 -.135.096l-1.248 3.607h-1.492zm.869 1.068a.142.142 0 0 0 -.137.104c-.279.978-.522 1.793-.729 2.444s-.381 1.182-.523 1.589l-.934 2.688a.142.142 0 0 0 .133.189h4.424a.142.142 0 0 0 .135-.191l-.961-2.688c-.159-.442-.34-.983-.541-1.623-.202-.645-.446-1.449-.731-2.41a.142.142 0 0 0 -.136-.101zm0 .639c.219.732.43 1.433.594 1.959.202.642.384 1.185.545 1.633l.893 2.498h-4.02l.869-2.498c.143-.411.317-.944.525-1.598.169-.533.377-1.246.594-1.994z"/></g></g></g><g stroke="#000" transform="translate(23.992 9.991)"><path d="m12.631 25.429c1.426.19 2.864.285 4.303.282 9.452 0 16.857-3.856 16.857-8.778s-7.405-8.778-16.857-8.778c-2.235-.009-4.464.219-6.65.683 1.349-4.678 3.822-7.826 6.65-7.826 1.513 0 2.992.94 4.256 2.68l-.843.607c-.128.091-.201.241-.195.398s.09.3.224.382l2.845 1.74c.037.021.083.021.119-.001.037-.022.059-.062.058-.105l-.211-3.792c-.009-.127-.085-.24-.201-.295-.115-.055-.251-.044-.355.03l-.683.493c-1.45-1.994-3.19-3.073-5.015-3.073-3.371 0-6.271 3.616-7.699 9.018-5.478 1.433-9.158 4.37-9.158 7.838.044 1.493.674 2.908 1.753 3.94l-.56.371c-.154.102-.233.286-.202.468s.167.329.346.375l4.214 1.071c.046.012.094-.006.122-.043.028-.038.032-.088.009-.129l-1.795-3.072c-.049-.087-.134-.15-.232-.172s-.201-.001-.282.058l-.843.552c-.968-.88-1.542-2.111-1.593-3.418 0-2.899 3.211-5.432 7.969-6.789-.483 2.231-.721 4.507-.712 6.789 0 9.452 3.793 16.857 8.664 16.857 2.668 0 5.141-2.301 6.781-6.321.097-.243-.022-.519-.266-.615-.243-.097-.519.022-.615.265-1.488 3.645-3.641 5.736-5.9 5.736-4.26 0-7.725-7.164-7.725-15.921-.009-2.378.261-4.748.805-7.063 2.269-.527 4.591-.788 6.92-.78 8.778 0 15.921 3.519 15.921 7.843s-7.143 7.843-15.921 7.843c-1.396.006-2.791-.079-4.176-.257-.256-.035-.492.144-.527.4s.144.492.4.527z" stroke-width=".048"/><g stroke-linecap="round" stroke-linejoin="round" stroke-width=".265"><path d="m25.863 4.961-4.673-2.594 4.583-2.75z" transform="matrix(1.009 .054 -.106 1.164 -2.27 .271)"/><path d="m2.249 18.785 2.617-2.569.917 3.551z" transform="matrix(-1.79 -1.004 -.646 .973 23.593 8.354)"/></g></g><path d="m175.999 11.087h16.906v16.906h-16.906z" style="fill:#4c4cbb;stroke:#000;stroke-width:1.058;stroke-linecap:square;stroke-dasharray:2.117 4.233;stroke-dashoffset:.106"/><path d="m17.978 17.689 9.324 8.642-4.366.409 2.593 5.822-1.774.773-2.547-5.64-3.229 2.865z" fill="#fff" stroke="#000" stroke-linecap="round" stroke-linejoin="round" stroke-width="1.034" transform="translate(175.424 10.517)"/><path d="m-14.169 20.112h33.963v7.729h-33.963z" fill="#fccf00" transform="matrix(.707 -.707 .707 .707 74.087 8.903)"/><path d="m-21.203 9.245-5.325-9.223h10.65z" fill="#ababab" transform="matrix(.513 .513 -.736 .736 91.92 46.738)"/><path d="m-21.203 9.245-5.325-9.223h10.65z" fill="#2e2e2e" transform="matrix(.149 .149 -.213 .213 79.354 43.84)"/><g transform="matrix(1.034 0 0 1.034 121.013 9.08)"><g fill="#1ec51e"><circle cx="16.789" cy="29.968" r="3.274"/><circle cx="24.938" cy="15.477" r="3.123"/><circle cx="8.445" cy="15.509" r="3.123"/><path d="m16.82 16.794v9.818" stroke="#4d781a" stroke-dashoffset=".4" stroke-linecap="round" stroke-width="1.382"/><path d="m18.95 19.408-7.652-2.85" stroke="#4d781a" stroke-dashoffset=".4" stroke-linecap="round" stroke-width="1.15"/><path d="m14.426 19.408 7.653-2.85" stroke="#4d781a" stroke-dashoffset=".4" stroke-linecap="round" stroke-width="1.15"/></g><circle cx="16.873" cy="18.594" fill="#dd5c26" r="4.916"/><path d="m16.897 4v9.818" fill="#1ec51e" stroke="#4d781a" stroke-dashoffset=".4" stroke-linecap="round" stroke-width="1.382"/><circle cx="16.921" cy="4.791" fill="#1ec51e" r="4.035"/><path d="m30.55 23.675-9.201-3.427" fill="#1ec51e" stroke="#4d781a" stroke-dashoffset=".4" stroke-linecap="round" stroke-width="1.382"/><circle cx="28.296" cy="22.82" fill="#1ec51e" r="4.273"/><path d="m3.326 23.843 9.164-3.524" fill="#1ec51e" stroke="#4d781a" stroke-dashoffset=".4" stroke-linecap="round" stroke-width="1.382"/><circle cx="5.726" cy="22.966" fill="#1ec51e" r="4.273"/></g><ellipse cx="292.411" cy="27.355" fill="url(#b)" rx="16.764" ry="8.916"/><path d="m-297.674 29.209h7.663v3.558h-7.663z" fill="#d67070" transform="matrix(-1 .012 .012 1 0 0)"/><circle cx="248.39" cy="-138.822" fill="#bb0f0f" r="7.748" transform="matrix(.822 .57 -.57 .822 0 0)"/><circle cx="264.714" cy="-150.133" fill="#c4c4c4" r="6.114" transform="matrix(.822 .57 -.57 .822 0 0)"/><g transform="translate(225.607 8.197)"><path d="m23.524 31.888c-2.062-1.387-2.591-1.546-4.097-1.232-4.065.847-5.513 1.081-5.752.929-.142-.09-1.014-.624-1.937-1.186-2.233-1.358-3.012-1.983-3.556-2.851-.86-1.371-.184-2.69 1.539-3.003 1.196-.218 2.247.016 3.508.778.535.324 1.11.577 1.278.562.344-.029.966-1.971.897-2.798-.11-1.291-2.51-3.16-6.171-4.805-1.921-.863-2.375-.985-4.075-1.089-2.468-.151-3.467-.441-4.311-1.253-.603-.58-.682-.764-.66-1.537.041-1.476 1.174-2.544 2.846-2.684.522-.044 1.761-.015 2.753.063s1.937.128 2.1.11c.163-.019-.722-.422-1.967-.897-2.436-.93-3.093-1.39-3.591-2.519-.411-.933-.254-1.783.473-2.563.481-.516.719-.609 1.793-.699 1.014-.086 1.516.001 2.775.48.846.321 1.837.681 2.203.799l.665.216-.345-.549c-.776-1.233-.453-2.86.702-3.532.989-.576 2.02-.429 3.48.494l1.202.76.189-.734c.248-.962.623-1.429 1.416-1.768 1.318-.562 1.979-.16 4.802 2.913.691.753 2.572 4.836 2.946 6.399.15.625.441 1.091 1.009 1.616.917.848 2.322 2.578 4.658 5.734.901 1.218 2.018 2.585 2.483 3.039.906.885 1.064 1.422.767 2.619-.587 2.368-4.024 6.875-6.272 8.226-1.73 1.039-2.154 1.035-3.75-.039z" fill="#fff"/><path d="m23.106 30.94c-1.932-1.299-2.427-1.448-3.838-1.154-3.807.794-5.164 1.013-5.387.87-.133-.085-.949-.584-1.814-1.111-2.091-1.271-2.821-1.856-3.331-2.67-.805-1.284-.172-2.519 1.442-2.813 1.12-.204 2.104.015 3.285.729.501.303 1.04.54 1.197.527.322-.027.905-1.846.84-2.621-.102-1.209-2.35-2.96-5.779-4.501-1.799-.809-2.225-.922-3.817-1.02-2.311-.141-3.248-.413-4.038-1.173-.565-.543-.639-.716-.618-1.44.039-1.383 1.1-2.383 2.666-2.514.489-.041 1.65-.014 2.579.059.93.073 1.815.119 1.967.103.152-.017-.677-.395-1.843-.84-2.282-.87-2.898-1.302-3.364-2.359-.385-.874-.238-1.67.443-2.401.45-.483.674-.57 1.679-.655.951-.08 1.421.001 2.6.45.792.301 1.72.638 2.063.749l.623.201-.323-.513c-.727-1.156-.424-2.679.658-3.309.926-.539 1.891-.402 3.259.463l1.126.712.177-.687c.232-.901.583-1.339 1.326-1.656 1.234-.526 1.854-.15 4.498 2.728.648.705 2.409 4.53 2.759 5.993.14.586.413 1.022.945 1.514.859.794 2.175 2.414 4.363 5.371.844 1.141 1.89 2.421 2.326 2.846.849.828.996 1.332.718 2.453-.55 2.218-3.769 6.44-5.875 7.705-1.62.973-2.017.969-3.513-.037zm3.097-.755c1.694-1.031 4.55-4.581 5.237-6.511.426-1.198.339-1.518-.746-2.732-.538-.602-1.878-2.306-2.978-3.787-1.099-1.481-2.482-3.144-3.071-3.695-.886-.828-1.116-1.171-1.321-1.969-.136-.531-.66-1.917-1.165-3.078-.708-1.633-1.159-2.388-1.984-3.326-1.882-2.136-2.823-2.498-3.53-1.358-.493.796-.178 1.563 1.33 3.24 1.055 1.173 1.426 1.754 1.937 3.032.348.87.69 1.701.761 1.848s.047.273-.054.282c-.1.009-.313-.246-.472-.566s-1.04-1.585-1.958-2.811c-1.484-1.984-1.844-2.345-3.261-3.269-.876-.572-1.775-1.126-1.996-1.232-1.021-.488-2.156.152-2.098 1.183.047.837.609 1.466 2.395 2.675 1.186.803 1.821 1.402 2.612 2.465 1.329 1.785 2.133 3.082 2.004 3.234-.055.065-.129.086-.164.046-.946-1.08-1.826-1.849-3.919-3.423-2.319-1.745-2.741-1.984-4.942-2.797-2.937-1.085-3.946-1.13-4.617-.202-.871 1.203.245 2.281 3.573 3.449 2.082.731 2.217.814 4.84 2.971 1.484 1.22 2.706 2.32 2.717 2.443.01.124-.329-.025-.753-.331-.425-.306-1.894-1.058-3.265-1.672-2.409-1.079-2.573-1.123-4.866-1.306-2.569-.205-3.395-.064-4.032.69-.429.508-.343 1.408.175 1.846.577.488 1.17.623 3.315.758 1.699.107 2.086.21 4.012 1.067 2.497 1.111 3.84 1.937 5.213 3.206 1.479 1.367 1.613 2.34.653 4.713-.326.806-.443.923-.962.967-.385.032-.97-.169-1.678-.579-1.79-1.035-2.85-1.129-3.626-.322-.702.729.05 1.608 2.891 3.383l1.826 1.141 1.975-.376c4.48-.855 4.53-.859 5.465-.412.468.224 1.29.711 1.827 1.084s1.15.663 1.361.645.814-.294 1.34-.614z" transform="matrix(1.068 0 0 1.068 -1.145 -1.145)"/></g><g stroke="#000" stroke-width="5" transform="matrix(.176 0 0 .176 322.881 9.655)"><path d="m84.201 110.236h39.597v19.799h46.197l-65.996 65.996-65.996-65.996h46.197z" fill="#67d867"/><path d="m136.557 64.381h-50.841v26.912h57.942v18.817h-79.315v-104.665h76.758v18.533h-55.385v22.225h50.841z" fill="#fff"/></g></svg>