<svg height="200" viewBox="0 0 555.625 52.917" width="2100" xmlns="http://www.w3.org/2000/svg" xmlns:xlink="http://www.w3.org/1999/xlink"><radialGradient id="a" cx="16.857" cy="17.624" gradientTransform="matrix(1.016 0 0 .541 -.089 7.407)" gradientUnits="userSpaceOnUse" r="16.495"><stop offset="0" stop-color="#00bceb"/><stop offset="1" stop-color="#00bbeb" stop-opacity="0"/></radialGradient><path d="m-4.308-3.769h539.835v63.272h-539.835z" fill="#2a3541" stroke-linecap="round" stroke-linejoin="round" stroke-width="2.278" transform="matrix(1.045 0 0 1 .194 0)"/><rect fill="#4c5764" height="50.141" rx="9.402" stroke-dashoffset=".401" stroke-linecap="square" stroke-width="1.646" width="50.141" x="494.62" y="-91.232"/><path d="m237.848 11.669c-.393-.01-.711.221-.994.678-.527.85-.19 1.669 1.421 3.459 1.126 1.252 1.522 1.872 2.068 3.237.371.928.737 1.816.812 1.972.076.157.05.292-.057.301s-.334-.263-.504-.605-1.111-1.692-2.091-3.001c-1.585-2.117-1.969-2.503-3.482-3.49-.935-.61-1.894-1.202-2.131-1.315-1.09-.521-2.302.162-2.241 1.262.05.894.651 1.565 2.557 2.856 1.266.858 1.944 1.497 2.789 2.632 1.419 1.906 2.277 3.29 2.14 3.453-.059.07-.137.092-.175.05-1.01-1.153-1.949-1.973-4.184-3.655-2.477-1.863-2.927-2.118-5.277-2.986-3.136-1.159-4.212-1.205-4.928-.215-.93 1.285.261 2.435 3.814 3.682 2.223.78 2.367.869 5.167 3.172 1.584 1.303 2.89 2.477 2.901 2.609s-.351-.027-.805-.353-2.022-1.129-3.486-1.785c-2.572-1.152-2.748-1.199-5.196-1.394-2.743-.219-3.625-.068-4.305.737-.458.542-.367 1.503.187 1.97.617.521 1.249.665 3.54.81 1.814.114 2.227.224 4.284 1.139 2.666 1.186 4.099 2.068 5.566 3.424 1.579 1.459 1.723 2.498.698 5.032-.348.86-.473.986-1.027 1.032-.411.035-1.035-.181-1.791-.618-1.911-1.105-3.042-1.205-3.871-.344-.749.779.053 1.717 3.087 3.612l1.948 1.216 2.108-.402c4.783-.913 4.836-.917 5.834-.44.499.239 1.378.76 1.951 1.158.574.398 1.227.708 1.453.689.225-.019.869-.314 1.43-.656 1.809-1.1 4.857-4.89 5.59-6.95.455-1.279.362-1.621-.796-2.918-.575-.643-2.005-2.462-3.179-4.043s-2.649-3.356-3.279-3.945c-.946-.884-1.191-1.249-1.41-2.102-.146-.567-.705-2.047-1.243-3.287-.756-1.743-1.238-2.549-2.119-3.55-1.256-1.426-2.118-2.111-2.773-2.128z" fill="#fff"/><g transform="matrix(.291 0 0 .291 439.234 20.718)"><rect height="68.297" rx="1.835" width="102.852" x="-36.17" y="9.478"/><path d="m70.899 136.5-39.973 23.079v-46.157z" fill="#fff" transform="matrix(.854 0 0 .854 -25.096 -71.942)"/><g transform="matrix(.966 -.259 .259 .966 -121.959 21.032)"><rect height="22.402" rx="1.847" width="102.851" x="85.861" y="-11.38"/><g fill="#fff"><path d="m97.291-11.38h11.427v22.402h-11.427z"/><path d="m120.146-11.38h11.427v22.402h-11.427z"/><path d="m143.001-11.38h11.427v22.402h-11.427z"/><path d="m165.855-11.38h11.427v22.402h-11.427z"/></g></g></g><circle cx="296.609" cy="20.263" fill="#bb0f0f" r="4.958" transform="matrix(.858 .514 -.514 .858 245.901 -133.554)"/><g transform="translate(476.866 9.531)"><path d="m17.035 27.197 1.441.063" stroke-linecap="round" stroke-linejoin="round"/><g fill="#fff"><path d="m17.084 26.092a1.106 1.106 0 0 0 -1.154 1.057 1.106 1.106 0 0 0 1.057 1.154l1.441.063a1.106 1.106 0 0 0 1.154-1.057 1.106 1.106 0 0 0 -1.057-1.154z" stroke-linecap="round" stroke-linejoin="round"/><path d="m18.525 26.155 2.21.097a1.228 1.228 0 0 0 -.097 2.21l-2.21-.097-.062-1.11z"/></g></g><circle cx="306.275" cy="15.401" fill="#c4c4c4" r="3.913" transform="matrix(.858 .514 -.514 .858 245.901 -133.554)"/><circle cx="287.92" cy="13.171" fill="#c4c4c4" r="3.913" transform="matrix(.858 .514 -.514 .858 245.901 -133.554)"/><g transform="translate(476.866 9.531)"><g stroke-linecap="round" stroke-linejoin="round"><path d="m11.366 22.317-.859-2.315"/><path d="m10.17 19.096a.966.966 0 0 0 -.568 1.242l.859 2.316a.966.966 0 0 0 1.242.568.966.966 0 0 0 .568-1.242l-.859-2.314a.966.966 0 0 0 -1.242-.57z" fill="#d67070"/></g><g><path d="m12.913 22.436-.17-18.43" stroke-linecap="round" stroke-linejoin="round"/><g fill="#fff"><path d="m12.734 2.951a1.055 1.055 0 0 0 -1.046 1.065l.17 18.43a1.055 1.055 0 0 0 1.064 1.047 1.055 1.055 0 0 0 1.047-1.066l-.17-18.431a1.055 1.055 0 0 0 -1.065-1.045z" stroke-linecap="round" stroke-linejoin="round"/><path d="m12.725 2.017 2.68 4.539-5.276.048z" fill-rule="evenodd"/><path d="m12.719 1.314-3.196 5.647 6.495-.059zm.012 1.404 2.061 3.49-4.055.037z" fill-rule="evenodd"/></g></g><g><path d="m26.82 27.511 3.08.095" stroke-linecap="round" stroke-linejoin="round"/><g fill="#fff"><path d="m26.854 26.4a1.111 1.111 0 0 0 -1.145 1.076 1.111 1.111 0 0 0 1.076 1.145l3.08.096a1.111 1.111 0 0 0 1.145-1.076 1.111 1.111 0 0 0 -1.076-1.145z" stroke-linecap="round" stroke-linejoin="round"/><path d="m33.104 27.704-4.889 2.629.171-5.554z" fill-rule="evenodd"/><path d="m28.035 24.127-.211 6.836 6.02-3.236zm.701 1.307 3.627 2.248-3.76 2.023z" fill-rule="evenodd"/></g></g><g><path d="m9.185 28.121-5.337 1.817" stroke-linecap="round" stroke-linejoin="round"/><g fill="#fff"><path d="m8.826 27.068-5.336 1.816a1.111 1.111 0 0 0 -.695 1.41 1.111 1.111 0 0 0 1.41.695l5.338-1.818a1.111 1.111 0 0 0 .693-1.41 1.111 1.111 0 0 0 -1.41-.693z" stroke-linecap="round" stroke-linejoin="round"/><path d="m.813 30.971 3.654-4.179 1.791 5.26z" fill-rule="evenodd"/><path d="m4.611 26.064-4.5 5.145 6.705 1.332zm-.287 1.453 1.377 4.047-4.188-.832z" fill-rule="evenodd"/></g></g></g><circle cx="533.175" cy="27.516" fill="#bb0f0f" r="16.74"/><g fill="#fff" stroke-linecap="round" stroke-linejoin="round" stroke-width="4" transform="matrix(.488 0 0 .488 640.801 -18.103)"><path d="m-231.431 107.466h5.472l-8.365-27.009h-6.371l-8.404 27.009h5.355l1.681-6.254h8.951zm-9.615-10.162 3.44-12.899 3.479 12.899zm33.106 4.69v-8.677c0-4.573-2.423-7.114-7.974-7.114-2.306 0-4.925.508-7.466 1.485l1.134 3.401c2.111-.704 4.104-1.094 5.511-1.094 2.658 0 3.87.899 3.87 3.596v1.173h-2.619c-6.019 0-9.381 2.423-9.381 6.918 0 3.752 2.541 6.371 6.645 6.371 2.502 0 4.729-.899 6.215-3.088.782 2.033 2.267 2.814 4.573 3.01l1.055-3.322c-1.016-.391-1.563-.977-1.563-2.658zm-8.912 2.423c-1.915 0-2.931-1.134-2.931-3.127 0-2.423 1.603-3.596 4.847-3.596h2.072v4.182c-.938 1.642-2.267 2.541-3.987 2.541z"/><path d="m-196.207 105.443h3.264v2.023h-10.001v-2.023h3.264v-24.429h-3.264v-2.042h10.001v2.042h-3.264z"/></g><g fill="#00bdeb" stroke-linecap="round" transform="translate(375.006 9.536)"><g stroke-linejoin="round"><path d="m1.24 15.584a1.088 1.088 0 0 0 -1.088 1.088v15.918a1.088 1.088 0 0 0 1.088 1.09 1.088 1.088 0 0 0 1.088-1.09v-15.918a1.088 1.088 0 0 0 -1.088-1.088z"/><path d="m32.643 15.584a1.088 1.088 0 0 0 -1.088 1.088v15.918a1.088 1.088 0 0 0 1.088 1.09 1.088 1.088 0 0 0 1.088-1.09v-15.918a1.088 1.088 0 0 0 -1.088-1.088z"/><path d="m3.979 23.543a1.088 1.088 0 0 0 -1.088 1.088 1.088 1.088 0 0 0 1.088 1.088h25.925a1.088 1.088 0 0 0 1.088-1.088 1.088 1.088 0 0 0 -1.088-1.088z"/></g><path d="m8.15 18.793-5.837 5.838 5.837 5.838a.87.87 0 0 0 1.23 0 .87.87 0 0 0 0-1.23l-4.607-4.608 4.608-4.608a.87.87 0 0 0 0-1.23.87.87 0 0 0 -1.23 0z"/><path d="m25.117 18.539a.87.87 0 0 0 -.615.254.87.87 0 0 0 0 1.23l4.607 4.607-4.607 4.607a.87.87 0 0 0 0 1.23.87.87 0 0 0 1.23 0l5.838-5.838-5.838-5.838a.87.87 0 0 0 -.615-.254z"/></g><g fill="#00bdeb" stroke-linecap="round" stroke-linejoin="round" transform="translate(375.014 9.536)"><path d="m11.109 18.482 4.814-13.26h1.958l4.877 13.26h-1.78l-1.326-3.702h-5.464l-1.282 3.702zm3.595-5.18h4.423l-.961-2.687q-.24-.668-.543-1.629-.303-.97-.73-2.412-.418 1.469-.729 2.448-.312.979-.526 1.593zm2.225-8.535q-.65 0-1.184-.303-.525-.301-.845-.809-.312-.507-.312-1.121 0-.623.311-1.121.32-.507.845-.801.534-.303 1.184-.303.65 0 1.175.303.534.294.845.801.32.498.32 1.121 0 .614-.32 1.121-.311.507-.845.81-.525.303-1.175.303zm0-1.121q.463 0 .783-.32.329-.329.329-.792 0-.463-.32-.783-.32-.329-.792-.329-.463 0-.792.329-.32.32-.32.783 0 .463.32.792.329.32.792.32z"/><path d="m16.93.166c-.455 0-.876.108-1.254.322-.37.207-.671.49-.896.848a.142.142 0 0 0 0 .002c-.222.355-.334.756-.334 1.195 0 .433.113.837.334 1.197.226.357.526.645.895.857a.142.142 0 0 0 .002.002c.378.214.799.32 1.254.32s.872-.108 1.244-.322v.002c.375-.213.676-.501.896-.859.227-.36.342-.763.342-1.197 0-.44-.116-.842-.344-1.197-.22-.357-.521-.641-.895-.848-.372-.214-.789-.322-1.244-.322zm0 .285c.411 0 .775.094 1.104.283a.142.142 0 0 0 .002.002c.336.185.598.432.793.75a.142.142 0 0 0 .002.004c.199.31.297.652.297 1.043 0 .385-.099.731-.299 1.047-.196.318-.459.571-.796.762-.328.189-.692.283-1.103.283s-.779-.094-1.114-.283c-.33-.191-.593-.443-.795-.762-.194-.316-.291-.661-.291-1.047 0-.392.097-.735.291-1.045.201-.318.463-.567.793-.752a.142.142 0 0 0 .002 0c.334-.19.702-.285 1.113-.285zm0 .828c-.342 0-.651.128-.895.371-.238.238-.361.541-.361.883 0 .341.124.649.361.893a.142.142 0 0 0 .002.002c.243.237.551.361.893.361.341 0 .645-.125.883-.363.243-.243.371-.55.371-.893 0-.341-.124-.643-.361-.881-.239-.244-.546-.373-.893-.373zm0 .285c.281 0 .5.091.689.285a.142.142 0 0 0 .002.002c.189.189.277.406.277.682 0 .275-.091.495-.287.691-.189.189-.406.279-.682.279-.275 0-.496-.088-.691-.277l-.002-.002c-.189-.195-.277-.416-.277-.691 0-.276.09-.492.279-.682.196-.196.417-.287.691-.287zm-1.006 3.516a.142.142 0 0 0 -.135.094l-4.814 13.26a.142.142 0 0 0 .134.191h1.797a.142.142 0 0 0 .135-.096l1.248-3.607h5.264l1.291 3.607a.142.142 0 0 0 .135.096h1.779a.142.142 0 0 0 .135-.191l-4.877-13.262a.142.142 0 0 0 -.135-.092zm.1.283h1.758l4.773 12.977h-1.477l-1.291-3.608a.142.142 0 0 0 -.135-.096h-5.464a.142.142 0 0 0 -.135.096l-1.248 3.607h-1.492zm.869 1.068a.142.142 0 0 0 -.137.104c-.279.978-.522 1.793-.729 2.444s-.381 1.182-.523 1.589l-.934 2.688a.142.142 0 0 0 .133.189h4.424a.142.142 0 0 0 .135-.191l-.961-2.688c-.159-.442-.34-.983-.541-1.623-.202-.645-.446-1.449-.731-2.41a.142.142 0 0 0 -.136-.101zm0 .639c.219.732.43 1.433.594 1.959.202.642.384 1.185.545 1.633l.893 2.498h-4.02l.869-2.498c.143-.411.317-.944.525-1.598.169-.533.377-1.246.594-1.994z"/></g><g fill="#fff" transform="translate(18.38 9.525)"><path d="m12.631 25.429c1.426.19 2.864.285 4.303.282 9.452 0 16.857-3.856 16.857-8.778s-7.405-8.778-16.857-8.778c-2.235-.009-4.464.219-6.65.683 1.349-4.678 3.822-7.826 6.65-7.826 1.513 0 2.992.94 4.256 2.68l-.843.607c-.128.091-.201.241-.195.398s.09.3.224.382l2.845 1.74c.037.021.083.021.119-.001.037-.022.059-.062.058-.105l-.211-3.792c-.009-.127-.085-.24-.201-.295-.115-.055-.251-.044-.355.03l-.683.493c-1.45-1.994-3.19-3.073-5.015-3.073-3.371 0-6.271 3.616-7.699 9.018-5.478 1.433-9.158 4.37-9.158 7.838.044 1.493.674 2.908 1.753 3.94l-.56.371c-.154.102-.233.286-.202.468s.167.329.346.375l4.214 1.071c.046.012.094-.006.122-.043.028-.038.032-.088.009-.129l-1.795-3.072c-.049-.087-.134-.15-.232-.172s-.201-.001-.282.058l-.843.552c-.968-.88-1.542-2.111-1.593-3.418 0-2.899 3.211-5.432 7.969-6.789-.483 2.231-.721 4.507-.712 6.789 0 9.452 3.793 16.857 8.664 16.857 2.668 0 5.141-2.301 6.781-6.321.097-.243-.022-.519-.266-.615-.243-.097-.519.022-.615.265-1.488 3.645-3.641 5.736-5.9 5.736-4.26 0-7.725-7.164-7.725-15.921-.009-2.378.261-4.748.805-7.063 2.269-.527 4.591-.788 6.92-.78 8.778 0 15.921 3.519 15.921 7.843s-7.143 7.843-15.921 7.843c-1.396.006-2.791-.079-4.176-.257-.256-.035-.492.144-.527.4s.144.492.4.527z" stroke-width=".048"/><g stroke="#fff" stroke-linecap="round" stroke-linejoin="round" stroke-width=".265"><path d="m25.863 4.961-4.673-2.594 4.583-2.75z" transform="matrix(1.009 .054 -.106 1.164 -2.27 .271)"/><path d="m2.249 18.785 2.617-2.569.917 3.551z" transform="matrix(-1.79 -1.004 -.646 .973 23.593 8.354)"/></g></g><path d="m172.961 10.157h16.906v16.906h-16.906z" style="fill:#4c4cbb;stroke:#fff;stroke-width:1.058;stroke-linecap:square;stroke-dasharray:2.117 4.233;stroke-dashoffset:.106"/><path d="m18.112 17.749 9.546 8.847-4.47.419 2.654 5.96-1.816.792-2.608-5.774-3.306 2.934z" fill="#fff" transform="translate(172.286 9.521)"/><path d="m31.385 79.872h33.963v7.729h-33.963z" fill="#ffdb22" transform="matrix(.707 -.707 .707 .707 -5.123 -.576)"/><path d="m-21.203 9.245-5.325-9.223h10.65z" fill="#ababab" transform="matrix(.513 .513 -.736 .736 87.178 47.304)"/><g transform="translate(120.276 9.525)"><g fill="#1ec51e"><circle cx="16.707" cy="30.131" r="3.331"/><circle cx="25" cy="15.385" r="3.178"/><circle cx="8.216" cy="15.417" r="3.178"/></g><path d="m16.739 16.725v9.991" fill="#646464" stroke="#517f1b" stroke-dashoffset=".4" stroke-linecap="round" stroke-width="1.406"/><path d="m18.906 19.385-7.787-2.901" fill="#646464" stroke="#517f1b" stroke-dashoffset=".4" stroke-linecap="round" stroke-width="1.17"/><path d="m14.303 19.385 7.787-2.9" fill="#646464" stroke="#517f1b" stroke-dashoffset=".4" stroke-linecap="round" stroke-width="1.17"/><circle cx="16.792" cy="18.557" fill="#df622e" r="5.002"/><path d="m16.817 3.705v9.991" fill="#646464" stroke="#517f1b" stroke-dashoffset=".4" stroke-linecap="round" stroke-width="1.406"/><circle cx="16.841" cy="4.511" fill="#1ec51e" r="4.106"/><path d="m30.71 23.727-9.362-3.487" fill="#646464" stroke="#517f1b" stroke-dashoffset=".4" stroke-linecap="round" stroke-width="1.406"/><circle cx="28.417" cy="22.857" fill="#1ec51e" r="4.348"/><path d="m3.007 23.898 9.325-3.586" fill="#646464" stroke="#517f1b" stroke-dashoffset=".4" stroke-linecap="round" stroke-width="1.406"/><circle cx="5.45" cy="23.005" fill="#1ec51e" r="4.348"/></g><g transform="translate(271.105 9.525)"><ellipse cx="17.044" cy="16.933" fill="url(#a)" rx="16.764" ry="8.916"/><path d="m-22.457 15.386h7.663v3.558h-7.663z" fill="#d67070" transform="matrix(-1 .012 .012 1 0 0)"/><g transform="matrix(.822 .57 -.57 .822 0 0)"><circle cx="16.109" cy="9.439" fill="#bb0f0f" r="7.748"/><circle cx="32.433" cy="-1.871" fill="#c4c4c4" r="6.114"/></g></g><g stroke="#000" stroke-width="5" transform="matrix(.176 0 0 .176 322.448 10.593)"><path d="m84.201 110.236h39.597v19.799h46.197l-65.996 65.996-65.996-65.996h46.197z" fill="#67d867"/><path d="m136.557 64.381h-50.841v26.912h57.942v18.817h-79.315v-104.665h76.758v18.533h-55.385v22.225h50.841z" fill="#fff"/></g></svg>