<svg xmlns="http://www.w3.org/2000/svg" xmlns:svg="http://www.w3.org/2000/svg" id="svg1" width="190" height="190" version="1.1" viewBox="0 0 50.271 50.271" xml:space="preserve"><g id="layer4"><rect style="fill:#f2f2f2;fill-opacity:1;stroke-width:1.65031;stroke-linecap:square;stroke-dasharray:none;stroke-dashoffset:.4006" id="rect2" width="50.271" height="50.271" x="0" y="0" rx="9.426" ry="9.426"/></g><g id="layer1"><g id="g16" transform="matrix(1.0039797,0,0,1.0039797,-379.7068,78.037301)"><circle style="fill:#bb0f0f;fill-opacity:1;stroke:none;stroke-width:1.8559;stroke-linecap:round;stroke-linejoin:round;stroke-dasharray:none;stroke-opacity:1;paint-order:stroke fill markers" id="path25-0-0-1-7-1" cx="320.485" cy="-242.015" r="4.958" transform="rotate(30.931483)"/><g id="path1-9-2-61-4-0-0" transform="translate(386.25991,-69.61992)"><path style="color:#000;fill:#000;stroke-linecap:round;stroke-linejoin:round;-inkscape-stroke:none" id="path35" d="m 17.035483,27.196907 1.440942,0.06327"/><path style="color:#000;fill:#000;stroke-linecap:round;stroke-linejoin:round;-inkscape-stroke:none" id="path36" d="m 17.083984,26.091797 a 1.1060899,1.1060899 0 0 0 -1.154296,1.05664 1.1060899,1.1060899 0 0 0 1.05664,1.154297 l 1.441406,0.0625 a 1.1060899,1.1060899 0 0 0 1.154297,-1.05664 1.1060899,1.1060899 0 0 0 -1.05664,-1.154297 z"/><g id="g34"><path style="color:#000;fill:#000;-inkscape-stroke:none" id="path34" d="m 18.524945,26.155152 2.210051,0.09704 a 1.2277598,1.2277598 0 0 0 -0.09704,2.210051 l -2.21005,-0.09704 -0.06198,-1.109877 z"/></g></g><circle style="fill:#c4c4c4;fill-opacity:1;stroke:none;stroke-width:1.93755;stroke-linecap:round;stroke-linejoin:round;stroke-dasharray:none;stroke-opacity:1;paint-order:stroke fill markers" id="path24-2-5-9-9-4" cx="330.151" cy="-246.877" r="3.913" transform="rotate(30.931483)"/><circle style="fill:#c4c4c4;fill-opacity:1;stroke:none;stroke-width:1.93755;stroke-linecap:round;stroke-linejoin:round;stroke-dasharray:none;stroke-opacity:1;paint-order:stroke fill markers" id="path24-2-7-5-2-3-2" cx="311.796" cy="-249.107" r="3.913" transform="rotate(30.931483)"/><g id="path1-9-2-6-4-0-6-2" transform="translate(386.25991,-69.61992)"><path style="color:#000;fill:#000;stroke-linecap:round;stroke-linejoin:round;-inkscape-stroke:none" id="path37" d="M 11.366176,22.317311 10.506804,20.001505"/><path style="color:#000;fill:#d67070;stroke-linecap:round;stroke-linejoin:round;-inkscape-stroke:none" id="path38" d="m 10.169922,19.095703 a 0.96621501,0.96621501 0 0 0 -0.5683595,1.242188 l 0.8593755,2.316406 a 0.96621501,0.96621501 0 0 0 1.242187,0.568359 0.96621501,0.96621501 0 0 0 0.568359,-1.242187 l -0.859375,-2.314453 a 0.96621501,0.96621501 0 0 0 -1.242187,-0.570313 z"/></g><g id="path1-7-6-0-2" transform="translate(386.25991,-69.61992)"><path style="color:#000;fill:#000;stroke-linecap:round;stroke-linejoin:round;-inkscape-stroke:none" id="path42" d="M 12.913004,22.436315 12.743213,4.0055038"/><path style="color:#000;fill:#000;stroke-linecap:round;stroke-linejoin:round;-inkscape-stroke:none" id="path43" d="M 12.734375,2.9511719 A 1.055205,1.055205 0 0 0 11.6875,4.015625 l 0.169922,18.429687 a 1.055205,1.055205 0 0 0 1.064453,1.046875 1.055205,1.055205 0 0 0 1.046875,-1.066406 L 13.798828,3.9960938 A 1.055205,1.055205 0 0 0 12.734375,2.9511719 Z"/><g id="g39"><g id="path39"><path style="color:#000;fill:#000;fill-rule:evenodd;-inkscape-stroke:none" id="path40" d="M 12.72489,2.0165268 15.404832,6.5557935 10.12903,6.604396 Z"/><path style="color:#000;fill:#000;fill-rule:evenodd;-inkscape-stroke:none" id="path41" d="M 12.71875,1.3144531 9.5234375,6.9609375 16.017578,6.9023437 Z m 0.01172,1.4042969 2.060547,3.4902344 -4.054688,0.037109 z"/></g></g></g><g id="path1-9-6-8-6-0" transform="translate(386.25991,-69.61992)"><path style="color:#000;fill:#000;stroke-linecap:round;stroke-linejoin:round;-inkscape-stroke:none" id="path47" d="m 26.819921,27.511137 3.079574,0.09474"/><path style="color:#000;fill:#000;stroke-linecap:round;stroke-linejoin:round;-inkscape-stroke:none" id="path48" d="m 26.853516,26.400391 a 1.11125,1.11125 0 0 0 -1.144532,1.076171 1.11125,1.11125 0 0 0 1.076172,1.144532 l 3.080078,0.0957 a 1.11125,1.11125 0 0 0 1.144532,-1.076172 1.11125,1.11125 0 0 0 -1.076172,-1.144531 z"/><g id="g44"><g id="path44"><path style="color:#000;fill:#000;fill-rule:evenodd;-inkscape-stroke:none" id="path45" d="m 33.103935,27.704458 -4.889309,2.629025 0.170851,-5.553623 z"/><path style="color:#000;fill:#000;fill-rule:evenodd;-inkscape-stroke:none" id="path46" d="m 28.035156,24.126953 -0.210937,6.835938 6.019531,-3.236329 z m 0.701172,1.306641 3.626953,2.248047 -3.759765,2.023437 z"/></g></g></g><g id="path1-6-0-5-9-2-5" transform="translate(386.25991,-69.61992)"><path style="color:#000;fill:#000;stroke-linecap:round;stroke-linejoin:round;-inkscape-stroke:none" id="path52" d="M 9.1848614,28.120602 3.8478284,29.93768"/><path style="color:#000;fill:#000;stroke-linecap:round;stroke-linejoin:round;-inkscape-stroke:none" id="path53" d="m 8.8261719,27.068359 -5.3359375,1.816407 a 1.11125,1.11125 0 0 0 -0.6953125,1.410156 1.11125,1.11125 0 0 0 1.4101562,0.695312 l 5.3378907,-1.818359 a 1.11125,1.11125 0 0 0 0.6933592,-1.410156 1.11125,1.11125 0 0 0 -1.4101561,-0.69336 z"/><g id="g49"><g id="path49"><path style="color:#000;fill:#000;fill-rule:evenodd;-inkscape-stroke:none" id="path50" d="M 0.81294752,30.970954 4.4672546,26.792059 6.2580234,32.051818 Z"/><path style="color:#000;fill:#000;fill-rule:evenodd;-inkscape-stroke:none" id="path51" d="m 4.6113281,26.064453 -4.49999998,5.144531 6.70507808,1.332032 z m -0.2871094,1.453125 1.3769532,4.046875 -4.1875,-0.832031 z"/></g></g></g></g></g></svg>