<svg height="361.333" viewBox="0 0 1108 361.333" width="1108" xmlns="http://www.w3.org/2000/svg" xmlns:xlink="http://www.w3.org/1999/xlink"><clipPath id="a"><path d="m0 0h831v271h-831z"/></clipPath><g clip-path="url(#a)" transform="matrix(1.333 0 0 -1.333 0 361.333)"><path d="m203.612 57.743c1.019-3.056 1.658-5.475 1.912-7.256.255-1.786-.086-3.119-1.019-4.017-.937-.888-2.592-1.438-4.967-1.65-2.378-.21-5.65-.32-9.807-.32-4.329 0-7.703.063-10.124.193-2.418.127-4.268.38-5.54.763-1.278.379-2.167.909-2.676 1.593-.509.675-.935 1.57-1.272 2.67l-11.079 33.112h-61.892l-10.444-32.217c-.341-1.192-.787-2.186-1.335-2.992-.556-.811-1.45-1.445-2.679-1.915-1.231-.46-2.972-.781-5.219-.949-2.251-.172-5.204-.258-8.852-.258-3.902 0-6.962.128-9.169.383-2.211.25-3.739.868-4.584 1.844-.848.979-1.145 2.357-.892 4.142.255 1.783.892 4.153 1.91 7.13l50.814 146.197c.509 1.447 1.102 2.615 1.784 3.505.677.895 1.759 1.567 3.246 2.04 1.481.464 3.545.763 6.174.892 2.631.127 6.114.189 10.446.189 5.005 0 8.996-.062 11.97-.189 2.971-.129 5.286-.429 6.94-.892 1.656-.473 2.845-1.174 3.568-2.102.72-.94 1.335-2.206 1.845-3.821zm-75.646 120.859h-.13l-23.304-70.045h46.738z"/><path d="m.5 269.914h.586v.586h-.586z" fill="#0094cc"/><path d="m146.676 108.557c1.191 1.015 2.383 2.033 3.572 3.069l-4.517 13.577c-.437-.395-.867-.79-1.308-1.185-6.038-5.416-12.059-10.581-17.991-15.462h20.243z" fill="#00bdeb"/><path d="m55.885 58 2.115 6.085c-7.466-2.718-12.928-3.169-15.622-.891-9.729 8.227 20.18 48.793 66.808 90.61 46.623 41.816 92.31 69.052 102.04 60.822 7.682-6.492-9.346-33.137-39.784-64.637l4.838-13.868c40.081 40.856 61.038 78.941 47.794 90.133-15.371 12.996-70.995-15.184-124.231-62.935-53.242-47.747-83.943-96.987-68.571-109.981 4.517-3.818 12.528-4.058 22.912-1.315.326 1.615.885 3.592 1.701 5.976z" fill="#00bdeb"/><path d="m113.446 82.831h-16.298l-4.31-13.293c6.627 3.913 13.533 8.37 20.607 13.292z" fill="#00bdeb"/><path d="m54.562 53.652c-4.868-1.357-9.245-2.079-13.006-2.079-4.331 0-7.676.972-9.944 2.89-2.297 1.941-3.488 4.878-3.546 8.731-.296 20.213 29.371 61.12 72.142 99.479 43.195 38.743 89.558 65.802 112.746 65.802 4.33 0 7.676-.972 9.943-2.89 2.297-1.942 3.492-4.88 3.547-8.735.246-16.637-19.816-47.291-50.767-79.005l.858-2.463c31.824 32.478 52.514 64.176 52.259 81.502-.069 4.564-1.542 8.095-4.381 10.494-2.703 2.286-6.558 3.444-11.46 3.444-23.717 0-70.725-27.305-114.315-66.401-43.238-38.779-73.225-80.419-72.919-101.262.067-4.563 1.539-8.093 4.377-10.491 2.705-2.285 6.56-3.444 11.461-3.444h.002c3.637 0 7.824.649 12.458 1.875.117.751.301 1.603.546 2.553z" fill="#0094cc"/><path d="m127.57 108.557c5.706 4.708 11.469 9.657 17.221 14.814.402.361.794.72 1.193 1.079l-.811 2.435c-.65-.588-1.293-1.176-1.949-1.764-6.471-5.803-12.951-11.343-19.338-16.563z" fill="#0094cc"/><path d="m144.177 108.557h3.631c.897.768 1.791 1.547 2.687 2.326l-.802 2.411c-1.835-1.603-3.676-3.178-5.517-4.737z" fill="#0094cc"/><path d="m211.568 215.749c-1.369 1.158-3.31 1.744-5.77 1.744-16.24 0-57.378-26.322-97.813-62.588-40.859-36.643-69.247-72.416-69.033-86.995.035-2.34.792-4.152 2.25-5.386 1.368-1.158 3.308-1.744 5.768-1.744 2.843 0 6.464.823 10.698 2.35l.97 2.795c-4.685-1.82-8.64-2.796-11.668-2.796-1.889 0-3.319.4-4.251 1.188-.93.787-1.393 1.974-1.419 3.627-.199 13.728 28.506 49.564 68.253 85.212 40.047 35.919 80.525 61.989 96.245 61.989 1.89 0 3.32-.4 4.254-1.189.93-.787 1.395-1.973 1.419-3.626.15-10.273-15.888-32.928-40.627-58.62l.87-2.499c25.856 26.686 42.267 50.059 42.105 61.153-.033 2.34-.791 4.152-2.25 5.385z" fill="#0094cc"/><path d="m114.721 82.831h-4.086c-5.817-4.004-11.525-7.689-17.058-11.016l-1.077-3.319c7.157 4.205 14.609 9.005 22.221 14.334z" fill="#0094cc"/><path d="m109.328 108.94c.16-.131.317-.254.475-.382h21.526c-4.624 3.531-9.313 7.228-14.041 11.086-2.408 1.966-4.771 3.934-7.104 5.901l-4.516-13.575c1.214-1.012 2.428-2.024 3.66-3.03z" fill="#00bdeb"/><path d="m159.04 82.831h-14.292c6.172-4.061 12.185-7.745 17.99-11.054z" fill="#00bdeb"/><path d="m147.125 171.189c-55.41 45.213-108.807 67.93-119.264 50.728-8.039-13.213 11.634-46.143 46.307-81.199l8.979 9.148c-29.224 28.39-46.734 53.068-41.813 61.159 6.623 10.887 51.325-12.391 99.85-51.985 48.528-39.6 82.501-80.521 75.878-91.407-2.106-3.462-8.074-3.457-16.78-.583l3.254-9.333c.489-1.463.884-2.772 1.197-3.943 11.783-2.643 20.248-1.408 23.786 4.41 10.462 17.198-25.985 67.792-81.393 113.004z" fill="#00bdeb"/><path d="m129.893 108.557h3.864c-5.104 3.87-10.277 7.933-15.471 12.171-2.598 2.12-5.121 4.225-7.602 6.319l-.796-2.394c2.292-1.934 4.597-3.855 6.915-5.746 4.385-3.577 8.757-7.029 13.091-10.351z" fill="#0094cc"/><path d="m163.189 70.428-1.16 3.467c-4.739 2.741-9.602 5.726-14.55 8.935h-4.381c6.889-4.58 13.613-8.731 20.091-12.402z" fill="#0094cc"/><path d="m108.415 108.557h3.729c-.606.489-1.211.972-1.818 1.466-1.402 1.144-2.784 2.294-4.16 3.444l-.796-2.389c1.012-.841 2.021-1.682 3.046-2.521z" fill="#0094cc"/><path d="m148.201 172.298c-42.242 34.469-84.144 56.741-106.753 56.741-6.915 0-11.712-2.124-14.258-6.312-8.428-13.851 11.032-46.974 46.41-82.638l1.656 1.687c-34.27 34.581-53.84 66.943-46.059 79.731 2.09 3.44 6.212 5.183 12.251 5.183 21.76 0 64.063-22.589 105.268-56.211 54.887-44.786 91.282-94.798 81.13-111.485-2.091-3.437-6.21-5.181-12.244-5.181-.001 0-.004 0-.004 0-3.294.001-7.068.526-11.228 1.522.282-.946.508-1.796.697-2.586 3.847-.837 7.384-1.284 10.532-1.284h.004c6.91 0 11.705 2.122 14.252 6.309 10.919 17.948-24.947 68.253-81.653 114.523z" fill="#0094cc"/><path d="m142.259 160.15c-39.635 32.341-78.401 54.928-94.272 54.928-3.55 0-6.014-1.092-7.324-3.244-5.691-9.355 14.059-35.369 41.984-62.531l1.591 1.62c-30.226 29.358-45.741 52.83-41.568 59.691.854 1.403 2.643 2.115 5.317 2.115 15.378 0 53.533-22.37 92.788-54.398 52.085-42.504 81.15-80.792 75.617-89.887-.854-1.404-2.643-2.114-5.318-2.114-2.969 0-6.791.841-11.299 2.415l.956-2.74c4.067-1.318 7.563-2.025 10.343-2.025 3.552 0 6.016 1.091 7.325 3.244 7.837 12.88-32.559 57.362-76.139 92.926z" fill="#0094cc"/><path d="m37.769 162.265c-5.078 10.139-.978 22.474 9.159 27.554 10.139 5.082 22.476.978 27.555-9.157 5.079-10.139.979-22.476-9.157-27.555-10.14-5.08-22.477-.979-27.557 9.159z" fill="#00bdeb"/><path d="m194.021 193.529c-10.628-7.585-25.387-5.118-32.97 5.51-7.585 10.623-5.116 25.384 5.509 32.968s25.387 5.114 32.969-5.511c7.582-10.624 5.114-25.386-5.508-32.966z" fill="#00bdeb"/><path d="m190.624 200.271h-19.245v3.763l8.882 10.046c1.326 1.563 2.268 2.886 2.826 3.97.56 1.083.839 2.077.839 2.984 0 1.182-.294 2.128-.888 2.837-.589.709-1.477 1.064-2.658 1.064-1.247 0-2.212-.454-2.896-1.36-.683-.905-1.024-2.055-1.024-3.447h-5.595l-.039.12c-.065 2.547.775 4.704 2.521 6.471 1.747 1.766 4.091 2.649 7.033 2.649s5.226-.752 6.854-2.256c1.627-1.503 2.443-3.522 2.443-6.056 0-1.722-.457-3.291-1.37-4.709s-2.485-3.382-4.719-5.89l-4.728-5.672.042-.099h11.719v-4.414z" fill="#fff"/><path d="m56.137 190.847c7.381 0 14.019-4.096 17.324-10.69 3.349-6.685 2.438-14.4-1.681-20.069l1.857-1.696c4.862 6.389 5.755 15.168 1.923 22.818-3.705 7.393-11.147 11.986-19.424 11.986-3.329 0-6.536-.757-9.54-2.232l1.187-2.041c2.636 1.266 5.441 1.924 8.353 1.924z" fill="#0094cc"/><path d="m64.005 153.753c-2.432-1.056-5.175-1.63-7.83-1.63-.002 0-.002 0-.002 0-7.383 0-14.022 4.097-17.326 10.69-3.402 6.795-2.448 14.656 1.843 20.348l-1.376 1.988c-5.225-6.423-6.509-15.517-2.566-23.388 3.705-7.392 11.147-11.986 19.425-11.986h.002c3.248 0 6.38.732 9.32 2.138z" fill="#0094cc"/><path d="m203.795 217.392-2.115-.357c.502-2.601.597-5.412.148-8.104-.99-5.918-4.222-11.095-9.105-14.58-3.834-2.736-8.339-4.181-13.03-4.181-6.424 0-12.748 2.815-16.982 7.547l-1.81-1.198c4.689-5.48 11.508-8.697 18.792-8.697 5.184 0 10.161 1.597 14.394 4.618 5.393 3.848 8.964 9.567 10.056 16.104.5 2.987.215 5.962-.348 8.848z" fill="#0094cc"/><path d="m157.493 216.285c.99 5.918 4.223 11.096 9.106 14.582 3.831 2.734 8.337 4.18 13.027 4.18 7.165 0 13.919-3.445 18.139-9.213l2.42.627c-.118.175-.218.36-.342.533-4.648 6.514-12.204 10.402-20.216 10.402-5.184 0-10.16-1.596-14.39-4.617-5.395-3.85-8.966-9.57-10.059-16.106-.65-3.892-.354-7.79.787-11.45l2.079 1.274c-.889 3.146-1.104 6.469-.55 9.79z" fill="#0094cc"/><g font-family="Helvetica Neue" font-size="160" font-weight="700"><text transform="matrix(1 0 0 -1 220 45)"><tspan x="0" y="0">v</tspan></text><text transform="matrix(1 0 0 -1 295.2 45)"><tspan x="0" y="0">o</tspan></text><text transform="matrix(1 0 0 -1 389.96 45)"><tspan x="0" y="0">g</tspan></text><text transform="matrix(1 0 0 -1 485.72 45)"><tspan x="0" y="0">a</tspan></text><text transform="matrix(1 0 0 -1 574.56 45)"><tspan x="0" y="0">d</tspan></text><text transform="matrix(1 0 0 -1 670.32 45)"><tspan x="0 58.368" y="0">ro</tspan></text></g></g></svg>