<?xml version="1.0" encoding="UTF-8" standalone="no"?>
<!-- Created with Inkscape (http://www.inkscape.org/) -->

<svg
   width="190"
   height="190"
   viewBox="0 0 50.270833 50.270833"
   version="1.1"
   id="svg1"
   xml:space="preserve"
   xmlns="http://www.w3.org/2000/svg"
   xmlns:svg="http://www.w3.org/2000/svg"><defs
     id="defs1" /><g
     id="layer4"><rect
       style="fill:#f2f2f2;fill-opacity:1;stroke-width:1.65031;stroke-linecap:square;stroke-dasharray:none;stroke-dashoffset:0.4006"
       id="rect2"
       width="50.270832"
       height="50.270832"
       x="6.357829e-07"
       y="6.357829e-07"
       rx="9.4257812"
       ry="9.4257812" /></g><g
     id="layer1"><g
       id="layer3-21"
       transform="matrix(1.0115213,0,0,1.0115213,8.0069902,8.0069902)"><circle
         style="fill:#bb0f0f;fill-opacity:1;stroke:none;stroke-width:6.26693;stroke-linecap:round;stroke-linejoin:round;stroke-dasharray:none;stroke-opacity:1;paint-order:stroke fill markers"
         id="path25-0-7"
         cx="16.933332"
         cy="16.933332"
         r="16.740461" /><g
         id="text76-8-0-6"
         style="font-size:37.3333px;-inkscape-font-specification:'sans-serif, Normal';white-space:pre;fill:#ffffff;stroke-width:4;stroke-linecap:round;stroke-linejoin:round;paint-order:stroke fill markers"
         transform="matrix(0.48784506,0,0,0.48784506,124.55875,-28.685914)"
         aria-label="AaI"><path
           style="font-weight:500;font-size:39.0865px;font-family:'Fira Sans';-inkscape-font-specification:'Fira Sans, Medium'"
           d="m -231.43068,107.46571 h 5.47211 l -8.36451,-27.008771 h -6.3711 l -8.4036,27.008771 h 5.35485 l 1.68072,-6.25384 h 8.95081 z m -9.61528,-10.162491 3.43961,-12.898544 3.4787,12.898544 z m 33.10627,4.690381 v -8.677204 c 0,-4.57312 -2.42336,-7.113742 -7.97364,-7.113742 -2.30611,0 -4.9249,0.508124 -7.46552,1.485287 l 1.13351,3.400525 c 2.11067,-0.703557 4.10408,-1.094422 5.51119,-1.094422 2.65788,0 3.86956,0.89899 3.86956,3.595958 v 1.172595 h -2.61879 c -6.01932,0 -9.38076,2.423363 -9.38076,6.918313 0,3.7523 2.54062,6.3711 6.6447,6.3711 2.50154,0 4.72947,-0.89899 6.21476,-3.08784 0.78173,2.0325 2.26701,2.81423 4.57312,3.00966 l 1.05533,-3.32235 c -1.01625,-0.39086 -1.56346,-0.97716 -1.56346,-2.65788 z m -8.91172,2.42336 c -1.91524,0 -2.93149,-1.13351 -2.93149,-3.12692 0,-2.423361 1.60255,-3.595956 4.84673,-3.595956 h 2.07158 v 4.182256 c -0.93807,1.64163 -2.26701,2.54062 -3.98682,2.54062 z"
           id="path85-8" /><path
           style="font-stretch:semi-condensed;font-size:39.0865px;font-family:'DejaVu Serif';-inkscape-font-specification:'DejaVu Serif, Semi-Condensed'"
           d="m -196.2072,105.44268 h 3.26357 v 2.02303 h -10.00065 v -2.02303 h 3.26357 V 81.013616 h -3.26357 v -2.042117 h 10.00065 v 2.042117 h -3.26357 z"
           id="path86-57" /></g></g></g></svg>
