<svg height="190" viewBox="0 0 50.271 50.271" width="190" xmlns="http://www.w3.org/2000/svg"><rect fill="#f2f2f2" height="50.271" rx="9.426" stroke-dashoffset=".401" stroke-linecap="square" stroke-width="1.65" width="50.271"/><g fill="#008eb1" stroke-linecap="round" transform="matrix(1.009 0 0 1.009 -264.905 139.932)"><path d="m271.868-115.158a1.088 1.088 0 0 0 -1.088 1.088v15.918a1.088 1.088 0 0 0 1.088 1.09 1.088 1.088 0 0 0 1.088-1.09v-15.918a1.088 1.088 0 0 0 -1.088-1.088z" stroke-linejoin="round"/><path d="m303.271-115.158a1.088 1.088 0 0 0 -1.09 1.088v15.918a1.088 1.088 0 0 0 1.09 1.09 1.088 1.088 0 0 0 1.088-1.09v-15.918a1.088 1.088 0 0 0 -1.088-1.088z" stroke-linejoin="round"/><g transform="translate(270.636 -130.742)"><g><path d="m3.971 23.543a1.088 1.088 0 0 0 -1.088 1.088 1.088 1.088 0 0 0 1.088 1.088h25.925a1.088 1.088 0 0 0 1.088-1.088 1.088 1.088 0 0 0 -1.088-1.088z" stroke-linejoin="round"/><path d="m8.143 18.793-5.838 5.838 5.838 5.838a.87.87 0 0 0 1.23 0 .87.87 0 0 0 0-1.23l-4.607-4.608 4.607-4.608a.87.87 0 0 0 0-1.23.87.87 0 0 0 -1.23 0z"/><path d="m25.109 18.539a.87.87 0 0 0 -.615.254.87.87 0 0 0 0 1.23l4.607 4.607-4.607 4.607a.87.87 0 0 0 0 1.23.87.87 0 0 0 1.23 0l5.838-5.838-5.838-5.838a.87.87 0 0 0 -.615-.254z"/></g><g stroke-linejoin="round"><path d="m11.109 18.482 4.814-13.26h1.958l4.877 13.26h-1.78l-1.326-3.702h-5.464l-1.282 3.702zm3.595-5.18h4.423l-.961-2.687q-.24-.668-.543-1.629-.303-.97-.73-2.412-.418 1.469-.729 2.448-.312.979-.526 1.593zm2.225-8.535q-.65 0-1.184-.303-.525-.301-.845-.809-.312-.507-.312-1.121 0-.623.311-1.121.32-.507.845-.801.534-.303 1.184-.303.65 0 1.175.303.534.294.845.801.32.498.32 1.121 0 .614-.32 1.121-.311.507-.845.81-.525.303-1.175.303zm0-1.121q.463 0 .783-.32.329-.329.329-.792 0-.463-.32-.783-.32-.329-.792-.329-.463 0-.792.329-.32.32-.32.783 0 .463.32.792.329.32.792.32z"/><path d="m16.93.166c-.455 0-.876.108-1.254.322-.37.207-.671.49-.896.848a.142.142 0 0 0 0 .002c-.222.355-.334.756-.334 1.195 0 .433.113.837.334 1.197.226.357.526.645.895.857a.142.142 0 0 0 .002.002c.378.214.799.32 1.254.32s.872-.108 1.244-.322v.002c.375-.213.676-.501.896-.859.227-.36.342-.763.342-1.197 0-.44-.116-.842-.344-1.197-.22-.357-.521-.641-.895-.848-.372-.214-.789-.322-1.244-.322zm0 .285c.411 0 .775.094 1.104.283a.142.142 0 0 0 .002.002c.336.185.598.432.793.75a.142.142 0 0 0 .002.004c.199.31.297.652.297 1.043 0 .385-.099.731-.299 1.047-.196.318-.459.571-.796.762-.328.189-.692.283-1.103.283s-.779-.094-1.114-.283c-.33-.191-.593-.443-.795-.762-.194-.316-.291-.661-.291-1.047 0-.392.097-.735.291-1.045.201-.318.463-.567.793-.752a.142.142 0 0 0 .002 0c.334-.19.702-.285 1.113-.285zm0 .828c-.342 0-.651.128-.895.371-.238.238-.361.541-.361.883 0 .341.124.649.361.893a.142.142 0 0 0 .002.002c.243.237.551.361.893.361.341 0 .645-.125.883-.363.243-.243.371-.55.371-.893 0-.341-.124-.643-.361-.881-.239-.244-.546-.373-.893-.373zm0 .285c.281 0 .5.091.689.285a.142.142 0 0 0 .002.002c.189.189.277.406.277.682 0 .275-.091.495-.287.691-.189.189-.406.279-.682.279-.275 0-.496-.088-.691-.277l-.002-.002c-.189-.195-.277-.416-.277-.691 0-.276.09-.492.279-.682.196-.196.417-.287.691-.287zm-1.006 3.516a.142.142 0 0 0 -.135.094l-4.814 13.26a.142.142 0 0 0 .134.191h1.797a.142.142 0 0 0 .135-.096l1.248-3.607h5.264l1.291 3.607a.142.142 0 0 0 .135.096h1.779a.142.142 0 0 0 .135-.191l-4.877-13.262a.142.142 0 0 0 -.135-.092zm.1.283h1.758l4.773 12.977h-1.477l-1.291-3.608a.142.142 0 0 0 -.135-.096h-5.464a.142.142 0 0 0 -.135.096l-1.248 3.607h-1.492zm.869 1.068a.142.142 0 0 0 -.137.104c-.279.978-.522 1.793-.729 2.444s-.381 1.182-.523 1.589l-.934 2.688a.142.142 0 0 0 .133.189h4.424a.142.142 0 0 0 .135-.191l-.961-2.688c-.159-.442-.34-.983-.541-1.623-.202-.645-.446-1.449-.731-2.41a.142.142 0 0 0 -.136-.101zm0 .639c.219.732.43 1.433.594 1.959.202.642.384 1.185.545 1.633l.893 2.498h-4.02l.869-2.498c.143-.411.317-.944.525-1.598.169-.533.377-1.246.594-1.994z"/></g></g></g></svg>